# xmcd
#
# Track frame offsets: 
#        150
#        19707
#        35514
#        57733
#        80066
#        96066
#        109502
#        128234
#        145427
#        174692
#        190512
#        209558
#        224418
#        251617
#
# Disc length: 3588 seconds
#
# Revision: 1
# Processed by: cddbd v1.5.2PL0 Copyright (c) Steve Scherf et al.
# Submitted via: ExactAudioCopy v0.99pb5
#
DISCID=d10e020e
DTITLE=Steve Arrington and Dam-Funk - Higher
DYEAR=2013
DGENRE=Soul
TTITLE0=I Be Goin' Hard
TTITLE1=Tap That
TTITLE2=Magnificent
TTITLE3=Good Feeling
TTITLE4=I Be Trippin'
TTITLE5=I Love This Music
TTITLE6=Higher
TTITLE7=Do You Feel Me
TTITLE8=The Way I Feel About You
TTITLE9=Blow Your Mind
TTITLE10=Hear Me Knockin'
TTITLE11=Galactic Funtionals
TTITLE12=For The Homies (PB Wolf edit)
TTITLE13=Crazy In Here! (Bonus)
EXTD=
EXTT0=
EXTT1=
EXTT2=
EXTT3=
EXTT4=
EXTT5=
EXTT6=
EXTT7=
EXTT8=
EXTT9=
EXTT10=
EXTT11=
EXTT12=
EXTT13=
PLAYORDER=
